<?xml version="1.0" encoding="utf-8"?>
<!-- Generator: Adobe Illustrator 26.0.2, SVG Export Plug-In . SVG Version: 6.00 Build 0)  -->
<svg version="1.1" id="Ebene_1" xmlns="http://www.w3.org/2000/svg" xmlns:xlink="http://www.w3.org/1999/xlink" x="0px" y="0px"
	 viewBox="0 0 600 600" style="enable-background:new 0 0 600 600;" xml:space="preserve">
<style type="text/css">
	.st0{fill:#FFFFFF;}
	.st1{fill:#060C3C;}
	.st2{fill:#628497;}
	.st3{fill:#893C6F;}
	.st4{opacity:0.64;fill:#893C6F;}
	.st5{fill:#050D3C;}
	.st6{fill:#6BC08E;}
	.st7{fill:#FAF2C1;}
	.st8{fill:#905D9B;}
	.st9{fill:#82BCA3;}
	.st10{opacity:0.95;}
	.st11{opacity:0.86;}
	.st12{opacity:0.72;}
	.st13{fill:none;stroke:#1D1D1B;stroke-width:0.75;stroke-miterlimit:10;}
	.st14{fill:none;stroke:#050D3C;stroke-miterlimit:10;}
	.st15{fill:none;stroke:#893C6F;stroke-miterlimit:10;}
	.st16{opacity:0.9;}
	.st17{opacity:0.87;}
	.st18{opacity:0.88;}
	.st19{fill:none;stroke:#060C3C;stroke-miterlimit:10;}
	.st20{fill:none;stroke:#1B3AEF;stroke-miterlimit:10;}
	.st21{fill:none;stroke:#905D9B;stroke-width:5;stroke-linejoin:round;stroke-miterlimit:10;}
	.st22{fill:#1B3AEF;stroke:#FFFFFF;stroke-width:16;stroke-miterlimit:10;}
	.st23{fill:none;stroke:#1B3AEF;stroke-width:16;stroke-miterlimit:10;}
</style>
<rect width="600" height="600"/>
<path class="st0" d="M300,14.8c-9.5,0-187.4,0.4-188.2,216C111,446.3,218,543.8,218,543.8s47.4,42.2,82,41.4
	c34.6,0.8,82-41.4,82-41.4s107-97.5,106.2-313C487.4,15.3,309.5,14.9,300,14.8z"/>
<line class="st22" x1="200" y1="0" x2="200" y2="600"/>
<line class="st22" x1="399.9" y1="0" x2="399.9" y2="600"/>
<line class="st22" x1="600" y1="199.4" x2="0" y2="199.4"/>
<line class="st22" x1="600" y1="399.2" x2="0" y2="399.2"/>
<polygon points="192,48.8 208,38.9 208,533.3 192,512.9 "/>
<polygon points="407.9,48.8 391.9,38.9 391.9,533.6 407.9,513.3 "/>
<polygon points="133.7,391.2 138.8,407.2 461.2,407.2 466.3,391.2 "/>
<polygon points="114.1,191.4 112.6,207.4 487.4,207.5 485.9,191.4 "/>
</svg>
